<svg width="100" height="100" viewBox="0 0 100 100" fill="none" xmlns="http://www.w3.org/2000/svg">
<path d="M75.8405 80.5188C75.3161 81.0075 74.7005 81.388 74.029 81.6386C73.3574 81.8893 72.6432 82.0052 71.9269 81.9796C71.2104 81.9543 70.5063 81.7878 69.8542 81.4901C69.2023 81.1924 68.6151 80.769 68.1268 80.2444L50.9727 61.8236L59.9262 55.4756L76.1149 72.8051C76.6034 73.3295 76.984 73.9451 77.2347 74.6167C77.4854 75.2882 77.6013 76.0024 77.5757 76.7189C77.5504 77.4352 77.3839 78.1395 77.0862 78.7914C76.7885 79.4435 76.3651 80.0305 75.8405 80.5188Z" fill="black"/>
<path d="M44.6617 20.5947C40.0665 20.5947 35.5744 21.9574 31.7536 24.5103C27.9328 27.0633 24.9549 30.692 23.1963 34.9374C21.4378 39.1828 20.9777 43.8544 21.8742 48.3613C22.7707 52.8684 24.9835 57.0081 28.2328 60.2576C31.4821 63.5069 35.6221 65.7197 40.129 66.6161C44.6359 67.5127 49.3074 67.0526 53.5529 65.2941C57.7983 63.5355 61.4269 60.5575 63.9799 56.7368C66.533 52.9159 67.8956 48.4238 67.8956 43.8286C67.8958 40.7774 67.295 37.756 66.1276 34.9371C64.9601 32.1181 63.2486 29.5567 61.0911 27.3992C58.9336 25.2417 56.3723 23.5303 53.5532 22.3627C50.7342 21.1952 47.7129 20.5945 44.6617 20.5947ZM44.6617 62.4908C41.0408 62.49 37.5015 61.4156 34.491 59.4035C31.4807 57.3912 29.1346 54.5316 27.7493 51.1862C26.364 47.8408 26.0018 44.1597 26.7084 40.6084C27.415 37.0571 29.1587 33.7951 31.7191 31.2347C34.2794 28.6743 37.5415 26.9306 41.0928 26.224C44.6441 25.5174 48.3252 25.8796 51.6706 27.2649C55.016 28.6502 57.8756 30.9963 59.8879 34.0067C61.9 37.0171 62.9744 40.5564 62.9753 44.1772C62.9761 46.5825 62.503 48.9643 61.5829 51.1866C60.6628 53.4089 59.314 55.428 57.6132 57.1288C55.9124 58.8295 53.8931 60.1784 51.671 61.0985C49.4487 62.0186 47.067 62.4916 44.6617 62.4908Z" fill="black"/>
<path d="M77.3196 71.3989L64.1636 57.2733C67.8482 52.9711 69.8285 47.4677 69.7305 41.8041C69.6326 36.1406 67.4629 30.7091 63.6318 26.5368C59.8007 22.3645 54.5736 19.7404 48.9388 19.1607C43.3043 18.5811 37.6524 20.086 33.052 23.3909C28.4517 26.6959 25.2216 31.5718 23.9726 37.0968C22.7236 42.6218 23.5421 48.413 26.2735 53.3754C29.0048 58.3379 33.4597 62.1274 38.7959 64.0281C44.132 65.9286 49.9794 65.8081 55.2328 63.6894L69.3212 78.8341C70.3204 79.8335 71.6684 80.4066 73.0813 80.4326C74.4943 80.4584 75.8623 79.9354 76.8975 78.9734C77.9328 78.0114 78.5546 76.6853 78.6321 75.2742C78.7097 73.863 78.2371 72.4769 77.3134 71.4072L77.3196 71.3989ZM53.0418 59.6004C50.9666 60.4003 48.7612 60.8088 46.5371 60.8052C41.9548 60.8145 37.535 59.11 34.1453 56.0268C30.7557 52.9434 28.6414 48.7043 28.2178 44.1417C27.7942 39.5791 29.0919 35.0231 31.856 31.3685C34.62 27.7139 38.6507 25.2248 43.1562 24.3903C47.6618 23.5558 52.3165 24.4361 56.2061 26.8583C60.0958 29.2805 62.939 33.0696 64.1777 37.4812C65.4163 41.8928 64.9606 46.608 62.9002 50.7007C60.8397 54.7936 57.3232 57.968 53.0418 59.6004Z" fill="#F2EE98" stroke="black" stroke-width="1.5" stroke-miterlimit="10"/>
</svg>
