<svg width="100" height="100" viewBox="0 0 100 100" fill="none" xmlns="http://www.w3.org/2000/svg">
<path d="M73.7359 46.7592C73.7359 46.1989 70.7066 45.6932 65.8752 45.3433L68.385 45.1855C69.5653 45.1121 70.6679 44.5783 71.4503 43.7014C72.2328 42.8245 72.6311 41.6762 72.5577 40.5089L72.4636 39.0404C72.4272 38.4623 72.2758 37.897 72.0183 37.3767C71.7607 36.8565 71.402 36.3915 70.9626 36.0085C70.5232 35.6254 70.0117 35.3318 69.4575 35.1444C68.9032 34.9569 68.3171 34.8794 67.7325 34.9161L36.6661 36.4089L33.8495 30.0798C34.9414 29.4799 35.7677 28.4988 36.1666 27.3283C36.5656 26.1578 36.5085 24.8822 36.0066 23.7512C35.5046 22.6201 34.594 21.7149 33.4528 21.2128C32.3116 20.7106 31.022 20.6477 29.8364 21.0362L29.1225 19.418L28.6111 19.6405L29.3209 21.2384C28.1329 21.7856 27.2087 22.771 26.7464 23.9837C26.2841 25.1964 26.3204 26.5399 26.8474 27.7265C27.3745 28.9131 28.3505 29.8484 29.5664 30.3321C30.7822 30.8158 32.1413 30.8094 33.3525 30.3144L36.073 36.4433L27.1711 37.4344C25.9927 37.5103 24.8927 38.0452 24.1124 38.9219C23.3321 39.7985 22.9352 40.9454 23.0086 42.1109L23.1027 43.5774C23.1546 44.3854 23.4311 45.1635 23.9017 45.826C24.3724 46.4884 25.0189 47.0095 25.77 47.3316C25.1437 47.7052 24.6201 48.2257 24.2456 48.8469C23.871 49.4682 23.6569 50.1711 23.6223 50.8936L23.5507 52.3621C23.4951 53.5307 23.9109 54.6732 24.7068 55.5387C25.5026 56.4042 26.6134 56.9219 27.795 56.978L37.6336 57.4412C29.5336 57.5929 23.9414 58.1835 23.9291 59.0189C23.9291 59.4235 25.228 59.828 27.4984 60.2103C26.4419 60.3618 25.4758 60.8841 24.7765 61.6818C24.0772 62.4796 23.6915 63.4994 23.6898 64.5551V66.0257C23.6903 67.1953 24.1606 68.3169 24.9971 69.1438C25.8337 69.9707 26.9681 70.4352 28.1509 70.4352H68.7736C69.3594 70.4355 69.9394 70.3216 70.4807 70.1001C71.0219 69.8786 71.5137 69.5539 71.928 69.1444C72.3423 68.7349 72.6709 68.2487 72.8952 67.7136C73.1194 67.1785 73.2348 66.6049 73.2348 66.0257V64.5551C73.2341 63.8138 73.044 63.0846 72.6821 62.4354C72.3202 61.7861 71.7983 61.2378 71.1648 60.8414C72.0811 60.6391 72.5864 60.4146 72.5966 60.1658C72.5966 59.7269 71.083 59.2839 68.4648 58.8854C69.6321 58.9207 70.7668 58.5013 71.6245 57.7174C72.4823 56.9335 72.9944 55.8479 73.0507 54.6943L73.1223 53.2258C73.1784 52.0575 72.7631 50.9149 71.9675 50.0494C71.172 49.1838 70.0614 48.666 68.88 48.61L63.257 48.343C69.5836 47.9971 73.7359 47.4166 73.7359 46.7592Z" fill="black"/>
<path d="M29.7131 17.2659L28.3984 17.8369L37.3077 37.8977L38.6224 37.3267L29.7131 17.2659Z" fill="#F2EE98"/>
<path d="M29.4874 17.8412L38.0435 37.1056L37.5321 37.3281L28.976 18.0616L29.4874 17.8412ZM29.9374 16.6963L29.1335 17.0462L28.6242 17.2687L27.8203 17.6166L28.1721 18.4075L36.7303 37.672L37.0821 38.4669L37.886 38.119L38.3974 37.8965L39.1992 37.5486L38.8474 36.7537L30.2912 17.4912L29.9374 16.6963Z" fill="black"/>
<path d="M31.8362 29.5345C34.8501 29.5345 37.2935 27.1183 37.2935 24.1378C37.2935 21.1574 34.8501 18.7412 31.8362 18.7412C28.8222 18.7412 26.3789 21.1574 26.3789 24.1378C26.3789 27.1183 28.8222 29.5345 31.8362 29.5345Z" fill="#E687A3"/>
<path d="M31.8362 19.1763C32.8286 19.1763 33.7987 19.4673 34.6238 20.0125C35.4489 20.5578 36.092 21.3327 36.4718 22.2393C36.8516 23.146 36.9509 24.1436 36.7573 25.1061C36.5637 26.0686 36.0858 26.9527 35.3841 27.6466C34.6824 28.3405 33.7884 28.8131 32.8151 29.0045C31.8418 29.196 30.8329 29.0977 29.9161 28.7222C28.9993 28.3466 28.2157 27.7107 27.6643 26.8947C27.113 26.0787 26.8187 25.1194 26.8187 24.1381C26.8187 22.8222 27.3474 21.5601 28.2883 20.6296C29.2293 19.6991 30.5055 19.1763 31.8362 19.1763ZM31.8362 18.3086C30.6705 18.3094 29.5311 18.652 28.5623 19.293C27.5934 19.934 26.8384 20.8448 26.3929 21.91C25.9473 22.9753 25.8312 24.1473 26.0591 25.2779C26.287 26.4084 26.8488 27.4467 27.6734 28.2616C28.498 29.0765 29.5484 29.6313 30.6918 29.8559C31.8352 30.0805 33.0202 29.9648 34.0972 29.5235C35.1741 29.0821 36.0945 28.3349 36.7421 27.3764C37.3897 26.4178 37.7353 25.2909 37.7353 24.1381C37.7337 22.5925 37.1121 21.1107 36.0069 20.0178C34.9017 18.9249 33.4033 18.3102 31.8403 18.3086H31.8362Z" fill="black"/>
<path d="M29.6171 46.0259C28.4176 46.0221 27.2642 45.5677 26.3907 44.7546C25.5172 43.9415 24.9889 42.8306 24.9126 41.6467L24.796 39.8262C24.7193 38.5904 25.1413 37.3748 25.9695 36.4462C26.7978 35.5176 27.9646 34.9517 29.2142 34.8726L70.1233 32.332C70.2235 32.332 70.3278 32.332 70.4219 32.332C71.6212 32.3358 72.7742 32.7899 73.6477 33.6026C74.5211 34.4152 75.0497 35.5257 75.1265 36.7092L75.241 38.5297C75.2804 39.1418 75.1974 39.7555 74.9967 40.3359C74.796 40.9162 74.4816 41.4517 74.0714 41.9118C73.6612 42.3719 73.1634 42.7475 72.6063 43.0171C72.0493 43.2868 71.4439 43.4452 70.8249 43.4833L29.9158 46.0239C29.8176 46.0219 29.7174 46.0259 29.6171 46.0259Z" fill="#F2EE98"/>
<path d="M70.4153 32.7684C71.504 32.7718 72.5508 33.1839 73.3441 33.9214C74.1373 34.6588 74.6177 35.6667 74.6882 36.7411L74.8028 38.5615C74.8386 39.1169 74.7632 39.6738 74.5812 40.2004C74.3991 40.727 74.1138 41.2129 73.7416 41.6303C73.3694 42.0478 72.9177 42.3886 72.4122 42.6332C71.9067 42.8778 71.3574 43.0215 70.7957 43.056L29.8867 45.5966C29.7946 45.5966 29.7026 45.5966 29.6126 45.5966C28.5236 45.5956 27.476 45.1845 26.6826 44.4469C25.8893 43.7094 25.4098 42.7006 25.3417 41.6259L25.2251 39.8055C25.1567 38.6844 25.5401 37.5821 26.2914 36.7399C27.0427 35.8976 28.1008 35.3838 29.2341 35.311L70.1432 32.7704C70.2353 32.7704 70.3253 32.7704 70.4153 32.7704M70.4153 31.9027C70.3069 31.9027 70.1964 31.9027 70.088 31.9027L29.1789 34.4432C27.813 34.5296 26.5375 35.1482 25.6321 36.1633C24.7268 37.1784 24.2656 38.5071 24.3496 39.8581L24.4641 41.6785C24.5482 42.9733 25.1269 44.188 26.0828 45.0767C27.0388 45.9653 28.3006 46.4613 29.6126 46.4643C29.721 46.4643 29.8314 46.4643 29.9398 46.4542L70.8489 43.9136C72.2148 43.8273 73.4904 43.2087 74.3957 42.1936C75.301 41.1785 75.7623 39.8498 75.6782 38.4988L75.5616 36.6784C75.4781 35.3834 74.8996 34.1684 73.9435 33.2797C72.9874 32.391 71.7254 31.8951 70.4132 31.8926L70.4153 31.9027Z" fill="black"/>
<path d="M70.7702 57.1936H70.5288L30.0841 55.2882C28.7675 55.2243 27.5304 54.6467 26.6438 53.682C25.7573 52.7174 25.2938 51.4445 25.355 50.1424L25.4184 48.8175C25.4763 47.5562 26.0233 46.3655 26.9459 45.4927C27.8685 44.6199 29.0957 44.1322 30.3725 44.1309H30.6138L71.077 46.0423C72.394 46.1052 73.6318 46.6825 74.5185 47.6474C75.4053 48.6123 75.8684 49.8858 75.8061 51.1882L75.7427 52.511C75.6837 53.7747 75.1336 54.9672 74.2072 55.8396C73.2807 56.712 72.0495 57.1971 70.7702 57.1936Z" fill="#6AB5D2"/>
<path d="M30.3717 44.565H30.5926L71.0353 46.4704C71.6319 46.4974 72.2172 46.6406 72.7576 46.892C73.2979 47.1433 73.7828 47.4977 74.1842 47.9349C74.5857 48.3721 74.8958 48.8835 75.0968 49.4396C75.2977 49.9956 75.3856 50.5855 75.3554 51.1753L75.2919 52.5002C75.2368 53.6504 74.7361 54.7355 73.8937 55.5305C73.0513 56.3255 71.9318 56.7694 70.7674 56.7702H70.5485L30.1058 54.8486C28.9058 54.7925 27.7773 54.2675 26.9684 53.3891C26.1595 52.5107 25.7364 51.3507 25.7919 50.1639L25.8574 48.8411C25.9105 47.6914 26.4089 46.6059 27.2494 45.8098C28.0898 45.0137 29.2079 44.568 30.3717 44.565ZM30.3717 43.6973C28.9816 43.6963 27.6445 44.2254 26.6388 45.1744C25.633 46.1234 25.0359 47.4193 24.9717 48.7925L24.9083 50.1174C24.841 51.5345 25.3452 52.92 26.3101 53.9697C27.275 55.0195 28.6218 55.6477 30.0547 55.7163L70.4994 57.6217H70.7592C72.1497 57.6232 73.4872 57.0944 74.4935 56.1453C75.4997 55.1963 76.097 53.9001 76.1613 52.5265L76.2247 51.2016C76.2914 49.7847 75.787 48.3994 74.8222 47.3498C73.8574 46.3002 72.511 45.6718 71.0783 45.6027L30.6335 43.6973C30.5456 43.6973 30.4597 43.6973 30.3717 43.6973Z" fill="black"/>
<path d="M71.4213 57.5801H29.9763C27.4944 57.5801 25.4824 59.5697 25.4824 62.024V64.2955C25.4824 66.7498 27.4944 68.7395 29.9763 68.7395H71.4213C73.9032 68.7395 75.9151 66.7498 75.9151 64.2955V62.024C75.9151 59.5697 73.9032 57.5801 71.4213 57.5801Z" fill="#F2EE98"/>
<path d="M71.4211 58.0123C72.4968 58.0123 73.5285 58.4349 74.2892 59.1871C75.0498 59.9393 75.4772 60.9595 75.4772 62.0233V64.2928C75.4772 65.3566 75.0498 66.3769 74.2892 67.1291C73.5285 67.8813 72.4968 68.3039 71.4211 68.3039H29.9781C28.9023 68.3039 27.8706 67.8813 27.11 67.1291C26.3493 66.3769 25.922 65.3566 25.922 64.2928V62.0233C25.922 60.9595 26.3493 59.9393 27.11 59.1871C27.8706 58.4349 28.9023 58.0123 29.9781 58.0123H71.4211ZM71.4211 57.1445H29.9781C28.6719 57.1488 27.4206 57.6645 26.4979 58.5788C25.5752 59.4932 25.0563 60.7316 25.0547 62.0233V64.2928C25.0547 65.5856 25.5729 66.8256 26.4957 67.7413C27.4186 68.6569 28.6708 69.1735 29.9781 69.1777H71.4211C72.729 69.1761 73.983 68.6616 74.9079 67.747C75.8328 66.8324 76.3531 65.5924 76.3547 64.2989V62.0233C76.3531 60.7299 75.8328 59.4899 74.9079 58.5753C73.983 57.6607 72.729 57.1461 71.4211 57.1445Z" fill="black"/>
<path d="M51.6284 46.9927C45.1137 46.9927 38.9875 46.7905 34.3791 46.4264C32.6147 46.3069 30.8575 46.0997 29.1141 45.8054C27.4593 45.4959 26.8457 45.1763 26.8457 44.6282C26.8457 44.08 27.4593 43.7624 29.1141 43.4509C30.8575 43.1575 32.6147 42.9509 34.3791 42.832C38.9875 42.4659 45.1137 42.2656 51.6284 42.2656C58.1432 42.2656 64.2673 42.4679 68.8778 42.832C70.6428 42.9509 72.4007 43.1575 74.1448 43.4509C75.7996 43.7624 76.4152 44.08 76.4152 44.6282C76.4152 45.1763 75.8016 45.4959 74.1448 45.8054C72.4021 46.0996 70.6456 46.3068 68.8818 46.4264C64.2673 46.7905 58.1412 46.9927 51.6284 46.9927Z" fill="#E687A3"/>
<path d="M51.629 42.6988C65.0738 42.6988 75.9699 43.5645 75.9699 44.6285C75.9699 45.6924 65.0718 46.5582 51.629 46.5582C38.1863 46.5582 27.2881 45.6945 27.2881 44.6285C27.2881 43.5625 38.1883 42.6988 51.629 42.6988ZM51.629 41.8311C45.104 41.8311 38.9656 42.0333 34.3449 42.3994C32.5627 42.5197 30.7877 42.729 29.0268 43.0265C27.6993 43.2753 26.4004 43.603 26.4004 44.6285C26.4004 45.654 27.6993 45.9837 29.0268 46.2325C30.7877 46.53 32.5627 46.7393 34.3449 46.8596C38.9656 47.2257 45.104 47.4259 51.629 47.4259C58.154 47.4259 64.2924 47.2236 68.9131 46.8596C70.6954 46.7394 72.4704 46.5301 74.2313 46.2325C75.5608 45.9837 76.8577 45.654 76.8577 44.6285C76.8577 43.603 75.5608 43.2753 74.2313 43.0265C72.4704 42.7289 70.6954 42.5196 68.9131 42.3994C64.2924 42.0333 58.154 41.8311 51.629 41.8311Z" fill="black"/>
<path d="M56.8344 60.0304C54.7582 60.0304 52.6064 60.0041 50.4382 59.9535C43.9255 59.7998 37.8075 59.4357 33.2094 58.926C25.7475 58.1007 25.766 57.3078 25.7762 56.879C25.7885 56.3652 26.2241 55.7786 31.2539 55.3356C34.5041 55.0484 39.088 54.8906 44.1607 54.8906C46.2348 54.8906 48.3887 54.9169 50.5569 54.9675C57.0696 55.1212 63.1875 55.4853 67.7857 55.995C75.2475 56.8203 75.2291 57.6132 75.2189 58.042C75.2046 58.5558 74.771 59.1424 69.7412 59.5854C66.491 59.8726 61.9071 60.0304 56.8344 60.0304Z" fill="#E687A3"/>
<path d="M44.16 55.2702C46.2055 55.2702 48.3368 55.2965 50.548 55.347C63.9886 55.6646 74.8623 56.8681 74.8336 58.0352C74.8111 59.0102 67.1816 59.6534 56.8336 59.6534C54.7882 59.6534 52.6568 59.6291 50.4457 59.5766C37.005 59.2671 26.1314 58.0534 26.16 56.8884C26.1825 55.9134 33.8121 55.2702 44.16 55.2702ZM44.16 54.5137C39.075 54.5137 34.4789 54.6714 31.2184 54.9587C29.9206 55.0541 28.6302 55.2298 27.3546 55.4846C26.6775 55.6363 25.4134 55.9195 25.3909 56.8701C25.3684 57.8208 26.6611 58.2153 27.8761 58.4883C29.6223 58.854 31.3874 59.1241 33.1636 59.2974C37.7721 59.8071 43.9023 60.1733 50.4252 60.327C52.5975 60.3776 54.7534 60.4039 56.8316 60.4039C61.9146 60.4039 66.5086 60.2461 69.7711 59.9589C71.0688 59.8624 72.3592 59.6867 73.635 59.4329C74.3121 59.2792 75.5761 58.996 75.5986 58.0474C75.6211 57.0987 74.3284 56.7023 73.1134 56.4292C71.3671 56.0646 69.602 55.7945 67.8259 55.6201C63.2155 55.1104 57.0852 54.7463 50.5643 54.5926C48.3921 54.542 46.2382 54.5157 44.16 54.5157V54.5137Z" fill="black"/>
</svg>
