<svg width="100" height="100" viewBox="0 0 100 100" fill="none" xmlns="http://www.w3.org/2000/svg">
<g clip-path="url(#clip0_73_3830)">
<path d="M73.034 24.6504H25.986C24.3475 24.6504 22.7761 25.3013 21.6175 26.4599C20.4589 27.6185 19.808 29.1899 19.808 30.8284V63.9044C19.8077 65.1142 20.1628 66.2974 20.8291 67.3072C21.4954 68.3169 22.4436 69.1088 23.556 69.5844L19 84.0004L34.224 70.5584L73.034 70.0744C74.6725 70.0744 76.2439 69.4235 77.4025 68.2649C78.5611 67.1063 79.212 65.5349 79.212 63.8964V30.8284C79.212 29.1899 78.5611 27.6185 77.4025 26.4599C76.2439 25.3013 74.6725 24.6504 73.034 24.6504Z" fill="black"/>
<path d="M75.3858 22.7119H28.3258C26.6873 22.7119 25.1159 23.3628 23.9573 24.5214C22.7987 25.68 22.1478 27.2514 22.1478 28.8899V61.9659C22.1475 63.1757 22.5026 64.3589 23.1689 65.3687C23.8352 66.3785 24.7834 67.1703 25.8958 67.6459L21.3418 81.5859L36.5638 68.1439H75.3858C77.0243 68.1439 78.5957 67.493 79.7543 66.3344C80.9129 65.1758 81.5638 63.6044 81.5638 61.9659V28.8899C81.5638 27.2514 80.9129 25.68 79.7543 24.5214C78.5957 23.3628 77.0243 22.7119 75.3858 22.7119Z" fill="#9277AA" stroke="black" stroke-width="2" stroke-miterlimit="10"/>
<path d="M37.0044 48.5C39.3626 48.5 41.2744 46.5882 41.2744 44.23C41.2744 41.8717 39.3626 39.96 37.0044 39.96C34.6461 39.96 32.7344 41.8717 32.7344 44.23C32.7344 46.5882 34.6461 48.5 37.0044 48.5Z" fill="#F2EE98"/>
<path d="M52.0864 48.5C54.4447 48.5 56.3564 46.5882 56.3564 44.23C56.3564 41.8717 54.4447 39.96 52.0864 39.96C49.7282 39.96 47.8164 41.8717 47.8164 44.23C47.8164 46.5882 49.7282 48.5 52.0864 48.5Z" fill="#F2EE98"/>
<path d="M67.1079 48.5C69.4661 48.5 71.3779 46.5882 71.3779 44.23C71.3779 41.8717 69.4661 39.96 67.1079 39.96C64.7496 39.96 62.8379 41.8717 62.8379 44.23C62.8379 46.5882 64.7496 48.5 67.1079 48.5Z" fill="#F2EE98"/>
</g>
<defs>
<clipPath id="clip0_73_3830">
<rect width="100" height="100" fill="white"/>
</clipPath>
</defs>
</svg>
