<svg width="100" height="100" viewBox="0 0 100 100" fill="none" xmlns="http://www.w3.org/2000/svg">
<path d="M73.8016 43.7914C73.2004 40.311 71.8809 36.994 69.9269 34.052C68.1622 31.3944 65.9194 29.0881 63.3123 27.2498C58.4346 23.8185 52.5115 22.1985 46.5663 22.6699C40.6211 23.1415 35.0275 25.6747 30.7513 29.8319C26.4754 33.9893 23.7858 39.5094 23.1472 45.439C22.5085 51.3684 23.9612 57.3348 27.2539 62.3072C29.0178 64.9644 31.2602 67.2709 33.8665 69.1092C39.4184 73.0104 46.291 74.5502 52.9766 73.3906C53.3494 73.3269 53.7184 73.249 54.0853 73.1693L59.0707 92.9713C59.1182 93.1573 59.2373 93.3169 59.4022 93.4151C59.5669 93.5133 59.7639 93.5423 59.9501 93.4958C60.3389 93.3981 61.9563 93.0052 61.8584 92.6165L56.8831 72.8224C59.4754 72.0966 60.5304 70.9717 62.7239 69.5141C66.8703 66.7658 70.1263 62.8697 72.0945 58.3013C74.0628 53.7331 74.658 48.6905 73.8075 43.7895L73.8016 43.7914Z" fill="black"/>
<path d="M52.502 59.5117L54.569 58.9902L62.9041 92.0273C62.915 92.0709 62.9083 92.1171 62.8852 92.1555C62.8621 92.1942 62.8249 92.222 62.7813 92.233L61.041 92.6721C60.9974 92.6831 60.9513 92.6764 60.9126 92.6534C60.874 92.6303 60.8462 92.5928 60.8351 92.5492L52.5 59.5123L52.502 59.5117Z" fill="white" stroke="black" stroke-width="2" stroke-miterlimit="10"/>
<path d="M50.5841 71.9311C48.8429 71.9309 47.1062 71.7572 45.3993 71.4128C41.8793 70.7013 38.547 69.2621 35.616 67.1871C32.9634 65.3209 30.6827 62.9753 28.8916 60.2714C26.901 57.281 25.5586 53.9069 24.9511 50.3664C24.4012 47.171 24.4472 43.9013 25.0868 40.7226C25.7959 37.2027 27.2326 33.8698 29.3044 30.9372C31.1713 28.2858 33.5168 26.0059 36.2202 24.215C39.2101 22.2236 42.5845 20.8812 46.1251 20.2745C49.3204 19.7218 52.5906 19.7678 55.7689 20.41C59.2892 21.1181 62.6223 22.5548 65.5543 24.6278C68.2101 26.496 70.4933 28.8441 72.2866 31.5514C74.275 34.5441 75.6139 37.9205 76.217 41.4625C76.7691 44.6583 76.7237 47.9288 76.0835 51.1082C75.3738 54.6276 73.9365 57.9599 71.8638 60.8915C69.9975 63.5441 67.6519 65.8246 64.948 67.6157C61.9584 69.6063 58.5849 70.9485 55.045 71.5564C53.5715 71.8077 52.0791 71.9331 50.5841 71.9311Z" fill="#E687A3"/>
<path d="M50.5832 20.3242C52.2962 20.3234 54.0051 20.4939 55.6843 20.8327C59.1447 21.5345 62.4214 22.9483 65.306 24.9846C67.9124 26.8229 70.1548 29.1294 71.9187 31.7866C74.7632 36.0773 76.2469 41.1264 76.1759 46.2739C76.1047 51.4215 74.482 56.4276 71.5199 60.6381C69.6786 63.2453 67.3686 65.4878 64.7078 67.2507C60.5189 70.0264 55.6043 71.5051 50.5792 71.5023C46.3524 71.5045 42.1911 70.4588 38.4674 68.4588C34.7437 66.4588 31.5739 63.5668 29.2417 60.0418C26.466 55.8536 24.9871 50.9398 24.9901 45.9152C24.9893 41.6887 26.0354 37.5278 28.0352 33.8043C30.0352 30.0808 32.9264 26.9108 36.4506 24.5777C39.394 22.6219 42.7133 21.3021 46.196 20.7031C47.6451 20.4526 49.1127 20.3272 50.5832 20.3282M50.5832 19.4727C49.0636 19.4755 47.5473 19.609 46.0504 19.8716C42.4556 20.4858 39.0291 21.8465 35.9918 23.8659C33.2423 25.6848 30.8558 28.0004 28.9546 30.6939C26.8481 33.6745 25.3877 37.0627 24.6672 40.6406C24.0149 43.8718 23.9682 47.1958 24.5295 50.444C25.1471 54.0432 26.512 57.473 28.5358 60.5124C30.3559 63.2597 32.6729 65.643 35.3678 67.5398C38.3477 69.6467 41.735 71.1071 45.3126 71.8274C48.5437 72.4795 51.8678 72.5262 55.1159 71.9649C58.7153 71.3479 62.1451 69.9832 65.1845 67.9588C67.9323 66.1386 70.3163 63.8217 72.2139 61.1266C74.3199 58.1463 75.78 54.7591 76.5013 51.1818C77.1544 47.9501 77.2003 44.625 76.637 41.3765C76.0208 37.7779 74.6567 34.3485 72.6327 31.31C70.8124 28.5623 68.4946 26.1789 65.7987 24.2826C62.8185 22.1767 59.4311 20.7169 55.8538 19.9972C54.1187 19.6475 52.3532 19.4718 50.5832 19.4727Z" fill="black"/>
<path d="M47.9575 43.7287C48.7365 44.5095 49.5872 45.2161 50.4981 45.8385C49.1559 43.8697 48.2241 41.6508 47.7579 39.3141C47.2916 36.9774 47.3009 34.5707 47.7847 32.2378C48.2685 29.9046 49.2172 27.6928 50.574 25.7342C51.931 23.7756 53.6685 22.1103 55.6829 20.8376C52.5555 20.208 49.3385 20.1626 46.1947 20.704C43.6934 24.121 42.4961 28.3198 42.8194 32.5423C43.1427 36.7646 44.9651 40.7322 47.9575 43.7287Z" fill="#F2EE98"/>
<path d="M50.2793 42.5179C50.2781 43.6212 50.3803 44.722 50.5842 45.8063C51.028 43.466 51.9381 41.2388 53.2602 39.2573C54.5825 37.2759 56.2898 35.5806 58.2807 34.2727C60.2714 32.9646 62.5051 32.0706 64.8487 31.6435C67.1921 31.2167 69.5977 31.2656 71.9219 31.7873C70.1572 29.1299 67.9142 26.8234 65.3071 24.9854C61.1225 25.6343 57.3079 27.7581 54.5519 30.9733C51.7961 34.1887 50.2805 38.2834 50.2793 42.5179Z" fill="#F2EE98"/>
<path d="M50.6602 45.8381C52.629 44.4959 54.8479 43.5641 57.1846 43.0979C59.5213 42.6318 61.9278 42.6409 64.2609 43.1247C66.5941 43.6085 68.8059 44.5572 70.7645 45.9142C72.7231 47.271 74.3884 49.0085 75.6609 51.0229C76.2935 47.8957 76.3389 44.6783 75.7947 41.5347C73.8751 40.1312 71.6931 39.1276 69.3781 38.5837C67.0633 38.0399 64.6625 37.9667 62.3189 38.3687C59.9752 38.7706 57.7361 39.6395 55.7347 40.9237C53.7333 42.2079 52.0105 43.8811 50.6682 45.844L50.6602 45.8381Z" fill="#F2EE98"/>
<path d="M65.1431 63.3466C65.1423 64.66 64.9966 65.9695 64.7084 67.2511C67.3656 65.487 69.6721 63.2448 71.5106 60.6385C71.1461 58.2876 70.3127 56.0342 69.0603 54.0119C67.8076 51.9896 66.1612 50.2397 64.2188 48.8663C62.2766 47.4927 60.078 46.5239 57.754 46.017C55.4297 45.5101 53.0273 45.4756 50.6895 45.9156C54.7516 46.6829 58.4186 48.8442 61.0573 52.0265C63.6962 55.2089 65.1411 59.2125 65.1431 63.3466Z" fill="#F2EE98"/>
<path d="M45.4845 70.9937C48.6111 71.6243 51.8276 71.6688 54.9706 71.1255C56.3742 69.2059 57.3777 67.0239 57.9215 64.7089C58.4655 62.3941 58.5385 59.9933 58.1365 57.6497C57.7345 55.3059 56.8657 53.0669 55.5817 51.0655C54.2975 49.0641 52.6243 47.3412 50.6614 45.999C52.0008 47.9686 52.9308 50.1874 53.3957 52.5237C53.8604 54.86 53.8507 57.2657 53.3669 59.598C52.8833 61.9306 51.9355 64.1418 50.5799 66.1006C49.2245 68.0592 47.4888 69.7253 45.4766 70.9998L45.4845 70.9937Z" fill="#F2EE98"/>
<path d="M29.2481 60.0424C31.0122 62.7002 33.2544 65.0073 35.8607 66.8465C38.2118 66.482 40.4654 65.6487 42.4879 64.396C44.5104 63.1432 46.2603 61.4966 47.6339 59.5542C49.0072 57.6116 49.9761 55.4128 50.483 53.0883C50.9897 50.7639 51.024 48.3613 50.5836 46.0234C50.1412 48.3645 49.2321 50.5925 47.9102 52.5747C46.5883 54.5568 44.881 56.2526 42.8897 57.5607C40.8986 58.869 38.6644 59.7629 36.3203 60.1893C33.9763 60.6155 31.5704 60.5656 29.2461 60.0424H29.2481Z" fill="#F2EE98"/>
<path d="M24.9961 45.9157C24.9957 47.3861 25.1218 48.854 25.3731 50.3029C27.2926 51.7064 29.4746 52.71 31.7894 53.2538C34.1044 53.7977 36.505 53.8707 38.8488 53.4688C41.1924 53.0668 43.4314 52.1979 45.4328 50.9139C47.4344 49.6297 49.1573 47.9565 50.4995 45.9934C48.5301 47.3338 46.3111 48.2644 43.9748 48.7297C41.6383 49.195 39.2324 49.1855 36.8997 48.7017C34.5671 48.2181 32.3557 47.2699 30.3969 45.9139C28.4383 44.5579 26.7725 42.8218 25.4987 40.8086C25.1614 42.4901 24.9932 44.2009 24.9961 45.9157Z" fill="#F2EE98"/>
<path d="M29.6543 31.1929C30.0186 33.5434 30.8519 35.7967 32.1044 37.8188C33.3569 39.841 35.003 41.5907 36.9452 42.9641C38.8872 44.3375 41.0855 45.3065 43.4095 45.8136C45.7334 46.3207 48.1356 46.3554 50.4732 45.9158C48.1324 45.473 45.9046 44.5637 43.9227 43.2416C41.9407 41.9197 40.2452 40.2124 38.9371 38.2211C37.6292 36.23 36.7354 33.9959 36.3091 31.6521C35.8829 29.3081 35.933 26.9024 36.4563 24.5781C33.7985 26.3422 31.4918 28.5852 29.6543 31.1929Z" fill="#F2EE98"/>
<path d="M47.9961 45.9157C47.9961 46.4284 48.1482 46.9298 48.433 47.356C48.7178 47.7824 49.1227 48.1146 49.5965 48.3108C50.0701 48.5071 50.5914 48.5584 51.0943 48.4584C51.5971 48.3584 52.059 48.1114 52.4215 47.7489C52.7843 47.3864 53.031 46.9244 53.1312 46.4215C53.2312 45.9187 53.1797 45.3974 52.9837 44.9236C52.7874 44.4499 52.4551 44.0451 52.0288 43.7603C51.6024 43.4753 51.1012 43.3232 50.5886 43.3232C49.901 43.3232 49.2417 43.5964 48.7555 44.0826C48.2693 44.5688 47.9961 45.2282 47.9961 45.9157Z" fill="#E687A3"/>
</svg>
