<svg width="100" height="100" viewBox="0 0 100 100" fill="none" xmlns="http://www.w3.org/2000/svg">
<path d="M74.5742 48.1414V54.966C74.2682 55.6415 73.7297 55.9866 73.0162 56.1518C71.3408 56.5397 69.6763 56.9693 67.9985 57.3633C67.6778 57.4392 67.4906 57.5664 67.3682 57.8956C67.0659 58.707 66.7208 59.5024 66.3622 60.2905C66.3037 60.3964 66.2767 60.5169 66.2845 60.6377C66.2924 60.7585 66.3346 60.8745 66.4062 60.972C67.1993 62.268 67.9776 63.5737 68.756 64.8782C69.3275 65.8363 69.259 66.4225 68.4794 67.2032C67.2042 68.4816 65.9257 69.7587 64.6439 71.0347C63.8668 71.8081 63.25 71.8852 62.3101 71.3247C61.0165 70.555 59.7228 69.7877 58.439 68.9996C58.341 68.9288 58.2247 68.8874 58.1039 68.8805C57.9831 68.8735 57.8629 68.9013 57.7574 68.9605C56.8933 69.3545 56.0048 69.6947 55.142 70.0961C54.9317 70.1941 54.7673 70.3694 54.6831 70.5856C54.2523 72.229 53.835 73.8774 53.4592 75.5343C53.2879 76.2954 52.9868 76.911 52.2415 77.2377H45.4039C44.6574 76.9122 44.3575 76.2954 44.1862 75.5355C43.819 73.8945 43.3858 72.267 42.9942 70.6309C42.9703 70.4947 42.9085 70.368 42.8159 70.2654C42.7232 70.1628 42.6034 70.0884 42.4704 70.0508C41.6443 69.7376 40.8316 69.3888 40.0227 69.0253C39.7351 68.8956 39.5185 68.8871 39.2382 69.0596C38.0009 69.822 36.7489 70.5611 35.4994 71.3051C34.5338 71.8791 33.9292 71.802 33.1251 71.0017C31.8678 69.751 30.6126 68.4983 29.3594 67.2436C28.5223 66.4066 28.4562 65.8229 29.0767 64.7962C29.811 63.5651 30.5453 62.3316 31.2991 61.1067C31.3713 61.0085 31.4141 60.8918 31.4223 60.7702C31.4305 60.6486 31.404 60.5272 31.3457 60.4201C30.9602 59.5721 30.6273 58.6984 30.2369 57.8503C30.1374 57.639 29.959 57.4751 29.74 57.3939C28.0939 56.9644 26.4429 56.5471 24.7822 56.1702C24.021 56.0001 23.4029 55.699 23.0762 54.955V48.1414C23.3821 47.4659 23.9206 47.1208 24.6353 46.9556C26.3096 46.5677 27.974 46.1345 29.6531 45.7453C29.8054 45.7211 29.9475 45.6533 30.0621 45.5502C30.1768 45.4471 30.2592 45.313 30.2993 45.1641C30.544 44.4751 30.828 43.7959 31.1315 43.1302C31.1984 43.0086 31.2295 42.8704 31.221 42.7317C31.2126 42.5931 31.165 42.4597 31.0838 42.347C30.2271 40.9373 29.3704 39.5166 28.5272 38.0971C27.9666 37.1597 28.0376 36.527 28.805 35.7634C30.0818 34.4842 31.3607 33.2075 32.6417 31.9332C33.4201 31.1598 34.0308 31.0839 34.9731 31.6456C36.3377 32.4594 37.7023 33.2707 39.0571 34.0931C39.1747 34.1807 39.3152 34.2324 39.4616 34.2419C39.6079 34.2515 39.7539 34.2185 39.882 34.1469C40.7264 33.7492 41.588 33.387 42.4594 33.0456C42.5992 33.0035 42.7243 32.9228 42.8205 32.8129C42.9166 32.7029 42.9797 32.5681 43.0027 32.4239C43.4197 30.674 43.8509 28.9274 44.2964 27.184C44.5411 26.2356 45.0404 25.8538 46.022 25.8525C47.8806 25.8525 49.74 25.8525 51.6002 25.8525C52.6136 25.8525 53.1092 26.2258 53.3576 27.2072C53.7999 28.9514 54.2315 30.6981 54.6525 32.4472C54.6743 32.5835 54.7341 32.7109 54.825 32.8148C54.9159 32.9187 55.0342 32.9949 55.1665 33.0346C55.9791 33.3356 56.782 33.6709 57.5652 34.0392C57.6938 34.1101 57.8401 34.1425 57.9865 34.1325C58.133 34.1225 58.2735 34.0706 58.3913 33.9829C59.6886 33.1912 60.9969 32.4141 62.3076 31.6371C63.2561 31.0729 63.8545 31.1476 64.6329 31.9246C65.9016 33.1875 67.1691 34.452 68.4354 35.7182C69.2639 36.5466 69.3349 37.1169 68.7328 38.1215C67.9507 39.4248 67.1736 40.7305 66.3769 42.0252C66.3016 42.1313 66.2577 42.2564 66.2502 42.3862C66.2426 42.516 66.2716 42.6454 66.334 42.7595C66.7073 43.5781 67.0279 44.42 67.4073 45.235C67.5044 45.4457 67.6801 45.61 67.8969 45.6927C69.5442 46.1235 71.1951 46.5407 72.8559 46.9164C73.6306 47.0975 74.2474 47.3973 74.5742 48.1414ZM48.7744 62.0918C54.557 62.0514 59.3263 57.564 59.3692 51.613C59.412 45.8432 54.8544 41.083 48.8894 41.0389C47.5044 41.0211 46.1296 41.2785 44.8448 41.7962C43.5601 42.3139 42.391 43.0816 41.4054 44.0547C40.4197 45.0279 39.6372 46.1871 39.1032 47.465C38.5692 48.743 38.2944 50.1142 38.2946 51.4992C38.253 57.2666 42.8143 61.9657 48.7744 62.0893V62.0918Z" fill="black"/>
<path d="M76.9748 45.176V52.0007C76.6688 52.6762 76.1303 53.0213 75.4168 53.1865C73.7414 53.5732 72.077 54.0027 70.3991 54.398C70.0784 54.4738 69.8912 54.5999 69.7688 54.9291C69.4665 55.7404 69.1214 56.5358 68.7628 57.3239C68.7044 57.4301 68.6775 57.5508 68.6853 57.6717C68.6931 57.7927 68.7352 57.9089 68.8069 58.0067C69.5999 59.3014 70.3783 60.6071 71.1567 61.9128C71.7282 62.8698 71.6597 63.4559 70.8801 64.2379C69.604 65.5179 68.3255 66.795 67.0446 68.0693C66.2674 68.8427 65.6506 68.926 64.7095 68.3594C63.4171 67.5897 62.1235 66.8224 60.8397 66.0343C60.7414 65.964 60.6252 65.923 60.5045 65.916C60.3838 65.9091 60.2637 65.9365 60.158 65.9951C59.294 66.3892 58.4055 66.7294 57.5427 67.1308C57.3323 67.2287 57.1679 67.4041 57.0837 67.6202C56.6529 69.2649 56.2356 70.912 55.8599 72.5702C55.6886 73.3301 55.3875 73.9469 54.6421 74.2724H47.8046C47.058 73.9469 46.7582 73.3313 46.5807 72.5702C46.2136 70.9292 45.7803 69.3017 45.3887 67.6655C45.3647 67.5296 45.3027 67.4031 45.2101 67.3008C45.1174 67.1984 44.9978 67.1242 44.8649 67.0867C44.0388 66.7734 43.2262 66.4235 42.4172 66.06C42.2966 65.9909 42.1589 65.9574 42.02 65.9635C41.8811 65.9695 41.7469 66.0149 41.6327 66.0943C40.3954 66.8579 39.1434 67.5958 37.8939 68.3398C36.9283 68.9137 36.3237 68.8366 35.5196 68.0375C34.2623 66.7853 33.0071 65.5322 31.7539 64.2783C30.9168 63.4412 30.8507 62.8587 31.4712 61.8308C32.2055 60.5998 32.9398 59.3663 33.6937 58.1413C33.7659 58.0431 33.8086 57.9264 33.8168 57.8048C33.825 57.6833 33.7985 57.5618 33.7402 57.4548C33.3547 56.6068 33.0218 55.7343 32.6314 54.885C32.5322 54.6737 32.3536 54.5102 32.1345 54.4298C30.4884 53.999 28.8375 53.5817 27.1767 53.2061C26.4143 53.036 25.7975 52.7362 25.4707 51.9921V45.1675C25.7767 44.4907 26.3152 44.1457 27.0299 43.9805C28.7041 43.5938 30.3685 43.1593 32.0476 42.7702C32.1999 42.746 32.342 42.6782 32.4567 42.5751C32.5713 42.472 32.6537 42.3378 32.6938 42.1889C32.9386 41.5 33.2225 40.8208 33.526 40.1551C33.5927 40.0336 33.6236 39.8956 33.6152 39.7572C33.6067 39.6188 33.5593 39.4857 33.4783 39.3731C32.6155 37.9634 31.7649 36.5427 30.9217 35.1232C30.3612 34.1846 30.4322 33.5532 31.1995 32.7896C32.4764 31.5095 33.7553 30.2328 35.0362 28.9593C35.8146 28.1859 36.4253 28.11 37.3615 28.6717C38.7261 29.4843 40.0907 30.2956 41.4455 31.1192C41.5633 31.2065 41.7037 31.258 41.85 31.2676C41.9963 31.2771 42.1422 31.2443 42.2704 31.173C43.1148 30.7753 43.9764 30.4118 44.8478 30.0717C44.9878 30.0298 45.113 29.9492 45.2092 29.8392C45.3053 29.7292 45.3684 29.5943 45.3912 29.45C45.8073 27.7001 46.2478 25.9538 46.6835 24.21C46.9283 23.2617 47.4288 22.8811 48.4104 22.8799C50.2698 22.8799 52.1292 22.8799 53.9886 22.8799C55.002 22.8799 55.4976 23.247 55.746 24.2333C56.1874 25.9783 56.6191 27.725 57.0409 29.4733C57.0627 29.6096 57.1225 29.737 57.2134 29.8409C57.3043 29.9448 57.4226 30.021 57.5549 30.0607C58.3675 30.3617 59.1704 30.697 59.9536 31.0665C60.0822 31.1374 60.2285 31.1698 60.375 31.1598C60.5214 31.1498 60.6619 31.0979 60.7797 31.0103C62.077 30.2173 63.3853 29.4402 64.696 28.6631C65.6445 28.099 66.2429 28.1737 67.0213 28.952C68.2908 30.2148 69.5583 31.4793 70.8238 32.7455C71.6523 33.5739 71.7233 34.143 71.1212 35.1477C70.3391 36.4509 69.562 37.7578 68.7653 39.0513C68.6903 39.1575 68.6465 39.2825 68.639 39.4123C68.6314 39.5421 68.6603 39.6714 68.7224 39.7855C69.0957 40.603 69.4164 41.4449 69.7957 42.2599C69.8932 42.4706 70.0687 42.6351 70.2853 42.7188C71.9326 43.1483 73.5835 43.5668 75.2443 43.9425C76.0312 44.131 76.648 44.4332 76.9748 45.176ZM51.175 59.1264C56.9577 59.086 61.727 54.5987 61.7698 48.6489C61.8126 42.8791 57.2551 38.1176 51.2901 38.0748C49.9051 38.057 48.5304 38.3143 47.2458 38.832C45.9611 39.3496 44.7921 40.1172 43.8064 41.0902C42.8208 42.0632 42.0382 43.2222 41.5042 44.5C40.9701 45.7778 40.6951 47.149 40.6953 48.5339C40.6537 54.3001 45.2113 58.9955 51.175 59.1179V59.1264Z" fill="#E687A3" stroke="black" stroke-width="2" stroke-miterlimit="10"/>
</svg>
