<svg width="541" height="541" viewBox="0 0 541 541" fill="none" xmlns="http://www.w3.org/2000/svg">
<g filter="url(#filter0_d_3_77859)">
<path d="M497.279 322.055C497.279 322.055 531.613 307.784 528.444 273.006C525.382 239.275 494.029 231.189 494.029 231.189C494.029 231.189 501.945 211.213 496.471 201.745C488.883 188.618 474.614 192.171 474.614 192.171C474.614 192.171 481.116 165.795 463.595 154.777C446.074 143.758 425.849 152.431 425.849 152.431C425.849 152.431 423.32 113.405 381.592 104.924C332.9 95.0162 313.138 128.406 313.138 128.406C313.138 128.406 314.4 109.62 293.267 105.103C272.133 100.586 259.487 114.316 259.487 114.316C259.487 114.316 254.429 67.1694 194.276 68.2528C134.123 69.3361 122.006 123.17 122.006 123.17C122.006 123.17 103.12 102.286 79.0136 116.666C58.4196 128.949 56.9759 155.691 56.9759 155.691C56.9759 155.691 23.738 157.137 16.1504 186.4C8.56276 215.664 31.686 230.839 31.686 230.839C31.686 230.839 11.4545 248.539 21.5692 266.604C31.509 284.353 53.7237 279.613 53.7237 279.613C53.7237 279.613 37.1048 316.463 60.5884 339.586C84.072 362.709 106.012 359.632 106.012 359.632C106.012 359.632 99.5202 380.22 109.989 392.147C120.458 404.074 137.085 401.178 137.085 401.178C137.085 401.178 139.158 420.508 159.21 411.841C159.21 411.841 163.277 458.988 220.18 467.117C277.083 475.246 307.066 435.325 307.066 435.325C307.066 435.325 323.327 455.646 346.629 450.498C369.932 445.35 369.927 426.645 369.927 426.645C369.927 426.645 382.211 438.025 390.519 421.768C390.519 421.768 429.061 442.006 456.091 419.058C484.177 395.214 470.724 359.447 470.724 359.447C470.724 359.447 493.035 363.157 499.539 351.13C507.85 335.784 497.279 322.055 497.279 322.055Z" fill="#EFD378"/>
<path d="M167.616 100.953C167.616 100.953 160.578 100.953 160.39 110.707C160.203 120.461 160.572 133.83 173.216 134.191C185.859 134.551 192.905 128.591 197.783 123.895C202.66 119.199 208.802 105.288 208.445 99.8696C208.089 94.4508 203.754 86.5028 199.593 88.8507C195.432 91.1986 185.864 101.859 185.864 101.859L180.626 115.949L171.774 103.666L167.616 100.953Z" fill="#E688A3"/>
<path d="M417.441 367.394C417.441 367.394 403.351 361.975 405.52 372.813C406.092 375.67 405.932 378.452 406.5 381C408.087 388.117 410.212 393.407 410.212 393.407C410.212 393.407 422.135 402.078 431.166 395.936C440.197 389.794 450.314 373.544 450.674 372.092C451.035 370.64 452.843 356.917 451.76 355.834C450.677 354.75 451.397 350.775 447.424 352.221C443.452 353.667 439.837 351.861 436.947 356.913C434.058 361.965 426.47 371.725 426.108 374.254C425.888 375.809 425.768 377.374 425.747 378.946L417.441 367.394Z" fill="#E688A3"/>
<path d="M90.8426 190.728C90.8426 190.728 84.8821 176.457 82.8882 173.749C80.8943 171.04 81.6236 167.607 76.2048 167.245C70.786 166.882 64.8255 167.607 62.2963 168.87C59.7671 170.132 56.8754 172.122 55.6129 173.561C54.3504 175.001 49.6418 178.076 50.192 181.878C50.7422 185.68 57.4192 208.975 56.6962 209.879C55.9733 210.783 64.8255 239.142 66.4505 243.478C68.0755 247.813 67.8964 249.98 74.2173 251.607C80.5381 253.234 88.4883 251.967 91.0175 250.342C93.5467 248.717 96.0759 247.632 97.7009 244.371C99.3259 241.11 101.495 235.879 101.132 231.906C100.77 227.933 97.8821 227.752 98.9655 225.583C100.049 223.415 107.997 221.248 107.997 221.248C107.997 221.248 110.889 228.113 111.972 231.544C113.055 234.975 111.609 239.673 116.663 241.119C121.718 242.565 131.657 241.842 134.547 240.938C137.437 240.033 141.772 239.492 144.12 236.783C146.468 234.075 147.553 228.835 146.831 225.946C146.108 223.056 151.347 227.931 154.418 230.279C157.489 232.627 162.545 235.7 168.508 236.061C174.47 236.421 171.758 237.325 180.791 235.879C189.825 234.433 196.506 232.99 200.119 230.1C203.731 227.21 205.719 225.042 208.79 220.346C211.861 215.65 214.029 212.029 215.473 209.869C216.917 207.708 216.377 203.185 217.642 209.869C218.907 216.552 216.738 216.733 219.086 220.346C221.434 223.958 220.892 226.667 226.123 227.029C231.354 227.392 232.265 228.654 237.142 227.39C242.019 226.125 242.2 227.029 244.909 224.86C247.617 222.692 248.521 221.61 248.884 217.275C249.246 212.939 250.328 207.339 250.328 207.339C250.328 207.339 260.263 220.348 264.419 222.152C268.576 223.956 270.199 223.958 275.257 224.319C280.315 224.679 290.249 217.996 291.063 218.269C291.878 218.542 296.968 220.589 301.086 222.321C305.204 224.052 315.447 228.012 323.576 227.198C331.706 226.383 336.585 229.366 339.57 226.927C342.556 224.487 344.989 225.031 346.608 222.05C348.226 219.068 350.129 213.108 348.774 211.754C347.42 210.4 348.233 208.231 344.981 206.606C341.729 204.981 332.247 200.645 327.097 200.375C321.947 200.104 318.699 199.833 318.699 199.833L319.512 196.847C319.512 196.847 325.743 197.389 331.703 196.847C337.664 196.305 342.002 196.305 344.168 195.492C346.335 194.68 348.233 191.698 348.233 191.698C348.233 191.698 348.774 189.53 350.129 193.323C350.886 195.473 351.801 197.564 352.869 199.577C352.869 199.577 358.017 205.269 361.54 207.435C365.063 209.602 366.417 207.706 366.959 210.421C367.5 213.136 365.605 220.175 366.146 223.157C366.688 226.138 363.436 226.677 368.313 230.471C373.19 234.265 369.398 237.509 378.336 238.059C387.273 238.609 394.051 229.659 394.051 229.659C394.051 229.659 412.476 200.667 415.457 197.415C418.438 194.162 426.566 172.757 426.566 172.757C426.566 172.757 430.63 168.963 427.107 165.44C423.584 161.917 417.624 153.517 414.642 154.332C411.661 155.147 407.605 155.686 405.43 159.48C403.255 163.274 392.421 179.259 389.986 183.595C387.551 187.93 389.444 191.453 385.921 187.93C382.398 184.407 381.857 187.118 381.315 182.782C380.773 178.447 383.484 154.061 381.857 152.163C380.23 150.265 374.545 147.771 367.501 147.5C360.457 147.229 358.013 148.64 358.013 148.64C358.013 148.64 356.117 161.376 355.575 163.003C355.034 164.63 351.212 181.458 350.129 182C349.045 182.542 349.883 179.259 345.821 176.822C341.758 174.384 323.331 175.465 322.246 174.111C321.16 172.757 323.331 167.88 323.331 167.88C323.331 167.88 338.233 165.711 340.942 166.253C343.65 166.795 347.175 167.88 349.883 167.336C352.592 166.792 359.001 162 359.001 162L358.013 154L355.3 146.476C355.3 146.476 337.417 140.786 336.604 140.786C335.792 140.786 310.862 138.346 309.508 139.43C308.154 140.513 302.191 141.328 298.668 146.205C295.145 151.082 292.979 161.107 292.979 158.67C292.979 156.232 289.185 144.307 289.185 144.307C289.185 144.307 295.156 141.321 285.391 140.786C275.626 140.251 270.218 137.8 268.051 140.244C265.884 142.688 263.174 143.494 262.359 148.371C261.545 153.249 258.568 170.32 258.568 170.32C258.568 170.32 250.168 158.67 248.545 155.147C246.922 151.624 245.836 143.224 243.126 142.138C240.415 141.053 228.765 140.784 226.87 142.409C224.974 144.034 219.553 145.661 218.469 146.474C217.386 147.286 214.946 149.459 214.676 152.163C214.405 154.867 214.946 161.647 214.134 164.357C213.321 167.068 213.321 170.047 211.965 168.963C210.609 167.88 203.025 159.209 201.669 158.124C200.313 157.038 196.25 148.911 193.269 148.64C190.288 148.369 169.967 144.305 162.381 148.64C154.796 152.976 148.016 155.955 146.651 157.58C145.287 159.205 136.897 172.213 136.897 172.213C136.897 172.213 132.028 159.484 129.047 158.665C126.066 157.846 119.293 154.601 115.772 155.68C112.251 156.759 106.289 161.369 106.289 161.369C105.22 162.717 104.478 164.294 104.12 165.976C103.578 168.686 103.578 184.672 104.12 185.755C104.662 186.838 104.12 192.259 104.12 192.259C104.12 192.259 96.2614 193.884 95.4489 194.426C94.6364 194.968 90.8426 190.728 90.8426 190.728Z" fill="#E688A3"/>
<path d="M225.509 325.849C224.697 325.037 217.668 320.953 215.501 321.224C213.334 321.494 201.395 318.984 194.621 320.43C187.848 321.876 182.157 324.495 178.905 327.203C175.652 329.912 173.215 325.578 171.867 331.81C170.519 338.041 169.698 358.364 170.24 359.718C170.782 361.072 174.034 395.485 177.557 403.344C181.08 411.202 182.705 414.452 187.58 416.352C192.455 418.252 214.676 416.079 217.387 415.809C220.097 415.538 231.747 411.473 235.812 408.494C239.876 405.515 243.376 401.208 243.376 398.5C243.376 395.792 245.566 389.527 245.566 389.527L243.001 377.999L237.166 370.016L229.501 363.499C229.501 363.499 230.935 360.522 232.018 358.897C233.101 357.272 236.895 353.208 236.895 351.58C236.895 349.953 234.456 342.097 233.91 339.66C233.364 337.222 235.537 327.195 235.537 327.195L243.393 321.224C243.393 321.224 249.626 319.326 250.981 319.599C252.335 319.872 256.399 322.036 257.212 322.584C258.024 323.132 259.652 324.482 261.277 328.555C262.902 332.629 262.983 344.454 262.722 345.266C262.462 346.079 264.529 350.233 263.716 360.258C262.904 370.283 266.966 360.529 267.781 362.968C268.595 365.408 271.483 358.362 275.006 359.716C278.501 359.716 288.965 363.921 287.001 362C291.878 358.479 285.662 349.416 285.662 349.416C285.662 349.416 286.477 334.785 287.289 331.262C288.102 327.739 287.198 324.759 290.542 322.32C293.885 319.88 292.501 317.618 295.689 318.255C303.501 316.5 306.527 320.424 307.34 320.966C308.152 321.507 308.967 322.32 310.863 322.32C312.758 322.32 317.687 321.254 320.617 320.695C323.547 320.136 325.494 319.068 328.746 320.153C331.998 321.239 331.998 319.339 335.519 321.778C339.04 324.218 340.396 322.049 342.023 325.572C343.65 329.095 347.171 341.016 349.061 344.268C350.95 347.52 353.001 350.999 353.001 350.999C353.001 350.999 356.001 336.612 356.001 332.999C357.626 330.56 358.273 325.849 360.171 324.759C362.069 323.67 364.778 324.218 370.194 323.403C375.611 322.589 384.013 324.218 384.013 324.218C384.013 324.218 386.459 330.833 387.001 332.999C387.543 335.166 385.097 370.822 385.097 370.822C385.097 370.822 384.555 401.439 382.659 401.981C380.763 402.523 377.509 406.587 371.819 406.587C366.13 406.587 359.355 407.673 356.917 405.775C354.48 403.877 347.975 398.189 346.621 395.752C345.267 393.314 343.001 388.499 343.001 388.499C343.001 388.499 339.846 398.723 338.492 399.804C337.138 400.885 336.232 403.999 330.001 403.999C326.41 404.672 314.098 402.514 314.098 402.514C314.098 402.514 311.112 401.97 309.762 398.991C308.412 396.012 308.677 389.237 306.239 393.843C303.802 398.45 307.864 397.908 302.716 400.616C297.568 403.325 294.587 406.035 291.066 407.933C287.545 409.831 290.524 410.1 282.395 410.641C274.266 411.183 276.162 412.539 269.66 410.912C263.157 409.285 258.551 407.662 255.299 405.764C252.047 403.866 246.001 396.5 246.001 396.5L243.376 377.314L237.001 369.999L229.828 363.585L234.797 352.747L234.501 344L232.086 334.682L225.509 325.849Z" fill="#E688A3"/>
<path d="M156.141 235.076L170.501 236L181.341 245.372L185.677 253.501C185.677 253.501 185.677 240.493 186.218 239.682C186.76 238.872 192.45 232.097 195.431 232.368C198.412 232.639 205.454 234.264 206.269 234.534C207.084 234.805 211.688 241.572 211.146 244.83C210.604 248.089 212.232 256.212 212.773 261.089C213.315 265.966 214.398 273.825 214.398 273.825C214.398 273.825 211.124 277.085 216.001 276C220.878 274.915 221.501 271.5 227.946 270.572C234.992 273.012 239.596 277.61 239.055 274.908C238.513 272.206 235.263 252.96 236.888 248.083C238.513 243.205 238.242 238.599 240.14 235.074C242.038 231.549 244.192 228.037 247.455 228.572C250.718 229.107 255.855 229.384 257.751 231.009C259.647 232.634 261.545 237.243 261.545 237.243C261.545 237.243 262.135 234.532 266.151 233.449C270.166 232.366 272.926 231.551 276.72 232.366C280.514 233.18 280.241 232.095 282.951 233.72C285.662 235.345 285.659 233.449 290.266 240.757C294.872 248.066 298.395 258.099 299.478 259.182C300.562 260.266 302.189 267.853 302.189 262.435C302.189 257.016 302.189 249.5 302.189 246.178C303.001 243.741 304.628 240.757 304.628 236.422C308.151 233.982 309.501 233.161 312.485 230.451C320.612 230.711 322.239 230.18 326.033 232.349C329.827 234.517 332.537 235.869 333.35 237.497C334.162 239.124 331.722 233.432 334.162 233.161C336.602 232.89 335.868 231.937 340.664 231.805C345.46 231.673 347.702 230.451 351.504 231.805C355.306 233.159 363.425 239.122 364.148 241.109C364.871 243.097 366.677 250.863 369.567 257.005C372.456 263.147 370.652 274.166 373 265.857C375.348 257.549 376.794 247.251 379.321 243.097C381.848 238.942 377.154 237.315 385.292 236.592C393.43 235.869 398.301 235.69 400.646 237.315C402.992 238.94 405.523 237.497 405.705 242.007C405.886 246.517 405.342 257.724 405.524 258.265C405.705 258.807 407.33 243.092 408.955 242.549C410.58 242.005 413.472 239.659 418.167 242.007C422.863 244.355 425.574 244.717 428.103 246.342C430.632 247.967 431.174 246.884 431.355 251.582C431.536 256.28 430.632 266.936 430.993 271.272C431.353 275.607 431.534 279.943 431.534 279.943C431.534 279.943 434.063 284.999 434.786 284.88C435.509 284.76 437.316 284.517 441.05 278.857C444.784 273.198 448.394 266.702 450.804 263.324C453.214 259.946 454.416 256.7 457.065 255.007C459.714 253.314 459.475 250.315 466.099 252.84C472.722 255.365 477.659 258.138 478.621 260.908C479.583 263.678 480.067 261.27 477.056 270.061C474.044 278.851 468.867 285.841 466.578 291.015C464.29 296.189 453.333 314.859 448.025 321.122C442.717 327.386 435.983 331.719 433.334 332.683C430.685 333.647 429.762 336.229 424.181 332.683C418.6 329.136 414.305 329.19 415.751 322.688C417.197 316.185 418.524 307.152 417.918 306.188C417.312 305.224 416.233 305.105 412.017 302.936C407.801 300.767 404.31 292.22 401.902 298.603C399.495 304.985 401.54 311.728 398.29 316.183C395.04 320.638 398.049 321.843 391.786 321.728C385.522 321.613 379.02 323.775 374.926 320.282C370.831 316.789 368.665 314.985 366.496 312.093C364.327 309.201 362.282 298.607 360.476 302.94C358.669 307.274 358.187 311.257 355.417 313.78C352.647 316.303 346.868 317.512 343.262 317.393C339.656 317.273 332.002 312.997 329.291 313.176C326.581 313.356 326.039 314.441 317.91 314.622C309.781 314.804 306.181 314.622 303.278 312.277C300.376 309.931 292.801 303.606 292.441 302.522C292.08 301.439 291.537 314.624 289.37 315.531C287.203 316.437 287.924 316.433 279.797 316.975C271.67 317.516 269.68 318.962 265.705 315.891C261.73 312.82 261.191 302.162 258.48 305.777C255.77 309.391 255.772 312.279 249.99 315.71C244.209 319.141 241.861 320.402 237.526 321.491C233.19 322.581 228.001 324.409 209.527 320.408C206.623 319.779 209.888 317.516 201.211 319.504C192.533 321.491 191.827 318.602 186.579 322.214C181.33 325.827 176.464 326.906 173.754 327.814C171.043 328.723 168.335 329.621 158.039 330.523C147.743 331.425 145.934 333.956 139.072 330.523C132.209 327.089 124.982 311.556 125.161 309.749C125.34 307.943 124.62 278.318 123.355 273.441C122.09 268.564 119.02 260.616 119.382 255.741C119.745 250.866 121.073 243.937 123.355 242.732C125.637 241.527 136.903 238.578 140.516 237.674C144.128 236.769 156.141 235.076 156.141 235.076Z" fill="#E688A3"/>
<path d="M200.073 331.117L204.901 338.387L213.683 338.551L208.196 345.365L210.734 353.701L202.515 350.643L195.3 355.631L195.707 346.926L188.71 341.673L197.183 339.351L200.073 331.117Z" stroke="#1D1D1B" stroke-width="3" stroke-linecap="round" stroke-linejoin="round"/>
<path d="M208.431 371.025L214.112 379.641L224.429 379.848L217.991 387.911L220.983 397.789L211.324 394.155L202.856 400.054L203.325 389.745L195.098 383.514L205.048 380.775L208.431 371.025Z" stroke="#1D1D1B" stroke-width="3" stroke-linecap="round" stroke-linejoin="round"/>
<path d="M497.279 322.055C497.279 322.055 531.613 307.784 528.444 273.006C525.382 239.275 494.029 231.189 494.029 231.189C494.029 231.189 501.945 211.213 496.471 201.745C488.883 188.618 474.614 192.171 474.614 192.171C474.614 192.171 481.116 165.795 463.595 154.777C446.074 143.758 425.849 152.431 425.849 152.431C425.849 152.431 423.32 113.405 381.592 104.924C332.9 95.0162 313.138 128.406 313.138 128.406C313.138 128.406 314.4 109.62 293.267 105.103C272.133 100.586 259.487 114.316 259.487 114.316C259.487 114.316 254.429 67.1694 194.276 68.2528C134.123 69.3361 122.006 123.17 122.006 123.17C122.006 123.17 103.12 102.286 79.0136 116.666C58.4196 128.949 56.9759 155.691 56.9759 155.691C56.9759 155.691 23.738 157.137 16.1504 186.4C8.56276 215.664 31.686 230.839 31.686 230.839C31.686 230.839 11.4545 248.539 21.5692 266.604C31.509 284.353 53.7237 279.613 53.7237 279.613C53.7237 279.613 37.1048 316.463 60.5884 339.586C84.072 362.709 106.012 359.632 106.012 359.632C106.012 359.632 99.5202 380.22 109.989 392.147C120.458 404.074 137.085 401.178 137.085 401.178C137.085 401.178 139.158 420.508 159.21 411.841C159.21 411.841 163.277 458.988 220.18 467.117C277.083 475.246 307.066 435.325 307.066 435.325C307.066 435.325 323.327 455.646 346.629 450.498C369.932 445.35 369.927 426.645 369.927 426.645C369.927 426.645 382.211 438.025 390.519 421.768C390.519 421.768 429.061 442.006 456.091 419.058C484.177 395.214 470.724 359.447 470.724 359.447C470.724 359.447 493.035 363.157 499.539 351.13C507.85 335.784 497.279 322.055 497.279 322.055Z" stroke="black" stroke-width="3" stroke-linecap="round" stroke-linejoin="round"/>
<path d="M92.2831 195.248C92.2831 195.248 89.031 186.57 84.6955 177.187C80.36 167.804 73.8579 164.723 61.9348 168.156C47.3183 172.363 51.8201 191.277 51.8201 191.277C51.8201 191.277 62.9286 239.047 66.1807 244.837C69.4328 250.627 76.4767 252.966 83.6122 251.972C87.2865 251.46 96.6207 248.901 98.9665 242.67C100.911 237.509 98.2436 225.418 98.2436 225.418" stroke="#1D1D1B" stroke-width="3" stroke-linecap="round" stroke-linejoin="round"/>
<path d="M265.701 189.285C266.341 189.628 256.443 168.068 250.167 156.047C245.378 146.877 245.049 139.432 227.225 141.597C209.402 143.761 213.285 161.457 213.285 161.457C213.285 161.457 217.635 214.652 220.026 220.839C222.417 227.025 233.156 226.328 236.058 226.078C239.756 225.763 244.467 226.036 248.001 221.8C251.534 217.565 250.53 206.627 250.53 206.627" stroke="#1D1D1B" stroke-width="3" stroke-linecap="round" stroke-linejoin="round"/>
<path d="M86.5112 197.414C86.5112 197.414 102.949 191.442 113.066 191.271" stroke="#1D1D1B" stroke-width="3" stroke-linecap="round" stroke-linejoin="round"/>
<path d="M92.4702 224.87C92.4702 224.87 110.17 222.162 116.675 219.451" stroke="#1D1D1B" stroke-width="3" stroke-linecap="round" stroke-linejoin="round"/>
<path d="M125.636 241.55C122.539 241.708 119.744 241.275 117.935 239.864C112.879 235.914 110.348 222.611 110.348 222.611" stroke="#1D1D1B" stroke-width="3" stroke-linecap="round" stroke-linejoin="round"/>
<path d="M104.656 190.64C104.656 190.64 101.948 174.382 102.76 168.963C103.573 163.544 106.599 158.646 113.423 157.131C119.927 155.686 126.195 154.611 130.946 161.104C136.365 168.511 144.495 218.549 146.12 223.968C147.745 229.387 146.661 233.452 143.134 236.16" stroke="#1D1D1B" stroke-width="3" stroke-linecap="round" stroke-linejoin="round"/>
<path d="M136.906 172.494C136.906 172.494 144.903 149.855 169.242 146.477C195.195 142.88 214.049 164.484 215.847 195.069C217.645 225.655 193.31 233.846 180.532 235.081C168.76 236.218 152.169 231.017 146.661 222.166" stroke="#1D1D1B" stroke-width="3" stroke-linecap="round" stroke-linejoin="round"/>
<path d="M259.559 174.111C259.559 174.111 260.645 152.433 261.728 148.821C262.811 145.208 264.018 141.613 270.518 140.504C277.982 139.239 286.299 141.466 286.299 141.466C286.299 141.466 289.551 141.948 291.176 146.283C292.801 150.619 294.066 207.883 292.081 216.191C290.095 224.499 276.364 224.508 271.668 224.32C271.275 224.305 270.872 224.271 270.461 224.222C267.68 223.87 265.016 222.896 262.664 221.371C260.314 219.846 258.339 217.81 256.885 215.415L246.378 198.31" stroke="#1D1D1B" stroke-width="3" stroke-linecap="round" stroke-linejoin="round"/>
<path d="M259.838 299.511C259.962 302.71 260.222 307.035 261.994 311.513C264.436 317.681 275.058 317.165 277.963 316.951C281.663 316.681 286.369 317.011 289.954 312.823C293.539 308.634 292.671 297.682 292.671 297.682" stroke="#1D1D1B" stroke-width="3" stroke-linecap="round" stroke-linejoin="round"/>
<path d="M308.05 280.527C308.69 280.879 299.055 259.202 292.929 247.099C288.254 237.872 288.024 230.423 270.168 232.368C266.636 232.752 263.947 233.754 261.904 235.112" stroke="#1D1D1B" stroke-width="3" stroke-linecap="round" stroke-linejoin="round"/>
<path d="M302.099 265.281C302.099 265.281 303.451 243.619 304.579 240.021C305.708 236.424 306.959 232.841 313.474 231.819C320.955 230.649 329.236 232.977 329.236 232.977C329.236 232.977 332.482 233.5 334.053 237.855C335.625 242.209 336.186 299.485 334.092 307.768C331.998 316.051 318.275 315.872 313.581 315.643C313.191 315.624 312.788 315.586 312.376 315.53C306.755 314.786 301.818 311.425 298.909 306.557L288.615 289.321" stroke="#1D1D1B" stroke-width="3" stroke-linecap="round" stroke-linejoin="round"/>
<path d="M206.62 319.799C202.024 316.933 198.452 312.692 196.411 307.676" stroke="#1D1D1B" stroke-width="3" stroke-linecap="round" stroke-linejoin="round"/>
<path d="M185.138 253.472C184.102 246.279 183.682 233.727 196.616 232.466C219.293 230.257 208.682 259.68 214.446 279.169C214.446 279.169 217.781 272.287 226.448 271.705C235.115 271.123 238.16 277.25 238.16 277.25C238.16 277.25 233.127 235.904 244.054 230.492C253.393 225.866 260.658 233.021 262.215 237.382C264.987 245.125 260.852 298.038 257.882 306.05C255.455 312.595 245.684 322.191 229.075 323.927C227.813 324.055 226.595 324.14 225.424 324.183" stroke="#1D1D1B" stroke-width="3" stroke-linecap="round" stroke-linejoin="round"/>
<path d="M330.738 313.924C334.541 316.003 339.763 316.429 341.659 316.551C345.361 316.786 349.976 317.756 354.102 314.094C358.229 310.433 358.856 299.463 358.856 299.463" stroke="#1D1D1B" stroke-width="3" stroke-linecap="round" stroke-linejoin="round"/>
<path d="M376.435 284.57C377.011 284.996 370.432 262.212 366.011 249.383C362.637 239.603 363.428 232.192 345.47 231.682C340.265 231.535 336.671 232.947 334.193 235.031" stroke="#1D1D1B" stroke-width="3" stroke-linecap="round" stroke-linejoin="round"/>
<path d="M372.61 268.651C372.61 268.651 376.902 247.375 378.51 243.963C380.118 240.551 381.846 237.175 388.437 237.051C396.01 236.91 403.896 240.348 403.896 240.348C403.896 240.348 407.04 241.308 408.004 245.835C408.967 250.362 401.713 307.18 398.514 315.102C395.315 323.025 381.737 320.984 377.12 320.11C376.736 320.035 376.342 319.941 375.941 319.832C370.475 318.327 366.041 314.324 363.824 309.106L355.974 290.638" stroke="#1D1D1B" stroke-width="3" stroke-linecap="round" stroke-linejoin="round"/>
<path d="M404.978 371.371C404.978 371.371 402.449 402.079 426.654 397.388C450.858 392.696 459.35 348.979 445.26 352.229C431.17 355.479 425.752 380.769 425.752 380.769C425.752 380.769 412.022 351.139 404.978 371.371Z" stroke="#1D1D1B" stroke-width="3" stroke-linecap="round" stroke-linejoin="round"/>
<path d="M160.028 107.636C160.028 107.636 157.499 138.345 181.703 133.653C205.908 128.962 214.4 85.2446 200.31 88.4925C186.22 91.7404 180.801 117.035 180.801 117.035C180.801 117.035 167.072 87.407 160.028 107.636Z" stroke="#1D1D1B" stroke-width="3" stroke-linecap="round" stroke-linejoin="round"/>
<path d="M292.613 214.394C293.763 220.505 299.58 222.902 305.221 224.086C308.015 224.67 325.312 227.357 337.452 227.05C342.707 226.918 347.667 223.536 348.81 218.407C350.09 212.679 348.098 207.802 344.215 205.185C339.77 202.2 317.541 201.212 317.541 201.212L318.264 194.888C318.264 194.888 336.938 197.167 344.281 195.43C349.879 194.106 350.542 184.991 349.373 181.916C347.712 177.547 343.04 176.308 339.583 175.922C336.126 175.536 321.882 173.211 321.882 173.211L323.508 166.174C323.508 166.174 344.773 168.321 348.797 168.161C357.829 167.799 358.462 161.478 358.733 156.057C359.004 150.636 356.387 147.026 351.508 145.038C349.444 144.198 341.088 142.389 331.637 141.425C322.185 140.462 312.67 140.703 312.67 140.703C298.038 141.425 296.676 154.884 296.676 154.884C296.676 154.884 293.784 170.147 292.882 175.115" stroke="#1D1D1B" stroke-width="3" stroke-linecap="round" stroke-linejoin="round"/>
<path d="M356.989 148.944C356.989 148.944 358.013 147.557 361.806 146.745C365.6 145.932 378.065 147.016 380.773 152.164C383.482 157.312 380.773 179.802 381.044 183.325C381.315 186.848 385.109 189.296 387.548 187.931C389.988 186.566 400.256 161.061 406.786 157.583C413.559 153.97 425.572 159.841 428.011 167.699C430.451 175.558 396.85 232.278 388.913 235.891C383.192 238.492 375.455 238.691 369.765 233.001C364.075 227.311 369.042 209.157 369.042 209.157C369.042 209.157 357.571 208.517 353.959 199.582C350.374 190.71 351.852 174.204 352.664 169.054" stroke="#1D1D1B" stroke-width="3" stroke-linecap="round" stroke-linejoin="round"/>
<path d="M408.314 244.02C408.314 244.02 407.913 243.594 411.716 242.82C415.518 242.046 427.97 243.293 430.614 248.473C433.259 253.653 430.273 276.109 430.501 279.634C430.729 283.159 434.491 285.646 436.946 284.326C439.4 283.006 449.986 257.62 456.565 254.218C463.389 250.689 475.332 256.709 477.663 264.595C479.993 272.481 445.706 328.785 437.713 332.299C431.956 334.829 424.223 334.931 418.604 329.171C412.984 323.411 418.177 305.321 418.177 305.321C418.177 305.321 406.717 304.546 403.215 295.56C403.002 295.018 402.974 295.012 402.723 294.334" stroke="#1D1D1B" stroke-width="3" stroke-linecap="round" stroke-linejoin="round"/>
<path d="M208.167 294.301L218.118 300.199" stroke="#1D1D1B" stroke-width="3" stroke-linecap="round" stroke-linejoin="round"/>
<path d="M209.757 302.666L215.647 291.617" stroke="#1D1D1B" stroke-width="3" stroke-linecap="round" stroke-linejoin="round"/>
<path d="M245.715 291.936L235.831 297.937" stroke="#1D1D1B" stroke-width="3" stroke-linecap="round" stroke-linejoin="round"/>
<path d="M244.22 300.317L238.21 289.33" stroke="#1D1D1B" stroke-width="3" stroke-linecap="round" stroke-linejoin="round"/>
<path d="M178.237 276.821C178.237 276.821 193.395 280.02 195.684 296.419C197.748 311.219 193.528 318.467 184.36 324.387C175.9 329.851 159.196 330.572 146.733 331.179C134.271 331.787 130.982 324.579 129.14 317.907C128.31 314.9 120.917 265.924 120.917 265.924C120.917 265.924 117.46 251.358 124.412 243.506C130.515 236.61 156.377 233.336 167.357 234.607C179.287 235.989 196.04 261.552 178.237 276.821Z" stroke="#1D1D1B" stroke-width="3" stroke-linecap="round" stroke-linejoin="round"/>
<path d="M223.608 304.761L232.034 304.236L228.464 312.323L223.608 304.761Z" fill="#1D1D1B"/>
<path d="M308.507 389.254C308.434 392.453 309.057 394.069 310.552 398.637C312.612 404.941 323.247 405.073 326.158 405.035C329.868 404.99 334.545 405.609 338.379 401.644C342.214 397.68 342.015 386.697 342.015 386.697" stroke="#1D1D1B" stroke-width="3" stroke-linecap="round" stroke-linejoin="round"/>
<path d="M358.424 370.528C359.03 370.916 350.747 348.689 345.369 336.239C341.266 326.743 341.496 319.294 323.551 320.144C320.002 320.313 317.258 321.149 315.136 322.381" stroke="#1D1D1B" stroke-width="3" stroke-linecap="round" stroke-linejoin="round"/>
<path d="M353.415 354.945C353.415 354.945 356.085 333.406 357.433 329.883C358.781 326.36 360.246 322.863 366.816 322.24C374.355 321.528 382.478 324.358 382.478 324.358C382.478 324.358 385.677 325.078 386.988 329.52C388.3 333.963 385.355 391.164 382.761 399.306C380.168 407.448 366.479 406.439 361.809 405.917C361.419 405.874 361.02 405.81 360.613 405.731C357.866 405.177 355.279 404.008 353.046 402.315C350.816 400.622 348.992 398.447 347.719 395.951L338.496 378.121" stroke="#1D1D1B" stroke-width="3" stroke-linecap="round" stroke-linejoin="round"/>
<path d="M187.846 321.873C190.392 321.188 194.312 320.593 197.058 320.248C204.721 319.301 212.884 320.547 217.719 321.046C229.213 322.235 245.787 348.632 227.646 363.494C227.646 363.494 242.725 367.034 244.644 383.48C246.374 398.325 241.04 405.036 231.742 410.749C223.159 416.021 205.369 417.612 194.919 417.127C182.457 416.552 179.322 410.173 177.631 403.46C176.869 400.436 170.593 351.306 170.593 351.306C170.593 351.306 167.465 336.666 174.592 328.972" stroke="#1D1D1B" stroke-width="3" stroke-linecap="round" stroke-linejoin="round"/>
<path d="M235.079 347.133C235.079 347.133 235.59 362.939 238.239 369.2" stroke="#1D1D1B" stroke-width="3" stroke-linecap="round" stroke-linejoin="round"/>
<path d="M186.102 262.504C186.102 262.504 187.051 277.144 190.107 283.217" stroke="#1D1D1B" stroke-width="3" stroke-linecap="round" stroke-linejoin="round"/>
<path d="M246.264 395.464C248.303 400.48 251.877 404.724 256.473 407.588C256.473 407.588 264.713 412.514 275.276 411.947C276.449 411.883 277.666 411.821 278.929 411.691C295.537 409.955 305.308 400.358 307.735 393.814C310.706 385.804 314.832 332.891 312.069 325.146C310.51 320.784 303.246 313.63 293.906 318.255C282.981 323.668 288.013 365.014 288.013 365.014C288.013 365.014 284.97 358.887 276.301 359.469C267.633 360.051 264.299 366.933 264.299 366.933C258.542 347.454 269.145 318.031 246.469 320.241C233.535 321.501 233.953 334.053 234.99 341.246" stroke="#1D1D1B" stroke-width="3" stroke-linecap="round" stroke-linejoin="round"/>
<path d="M258.03 382.09L267.978 387.988" stroke="#1D1D1B" stroke-width="3" stroke-linecap="round" stroke-linejoin="round"/>
<path d="M259.61 390.457L265.502 379.408" stroke="#1D1D1B" stroke-width="3" stroke-linecap="round" stroke-linejoin="round"/>
<path d="M295.567 379.725L285.683 385.726" stroke="#1D1D1B" stroke-width="3" stroke-linecap="round" stroke-linejoin="round"/>
<path d="M294.07 388.106L288.063 377.119" stroke="#1D1D1B" stroke-width="3" stroke-linecap="round" stroke-linejoin="round"/>
<path d="M273.47 392.55L281.898 392.025L278.328 400.112L273.47 392.55Z" fill="#1D1D1B"/>
<path d="M235.955 350.293C235.955 350.293 236.904 364.933 239.96 371.006" stroke="#1D1D1B" stroke-width="3" stroke-linecap="round" stroke-linejoin="round"/>
<path d="M176.577 164.984L182.356 173.536L192.675 173.621L186.331 181.759L189.438 191.601L179.737 188.08L171.337 194.077L171.687 183.764L163.389 177.628L173.306 174.773L176.577 164.984Z" stroke="#1D1D1B" stroke-width="3" stroke-linecap="round" stroke-linejoin="round"/>
<path d="M151.734 245.486L156.645 252.701L165.429 252.763L160.021 259.64L162.654 267.946L154.401 264.982L147.245 270.053L147.552 261.346L140.495 256.173L148.94 253.754L151.734 245.486Z" stroke="#1D1D1B" stroke-width="3" stroke-linecap="round" stroke-linejoin="round"/>
<path d="M160.546 285.295L166.325 293.846L176.645 293.932L170.3 302.07L173.407 311.911L163.707 308.393L155.306 314.387L155.656 304.074L147.358 297.939L157.275 295.083L160.546 285.295Z" stroke="#1D1D1B" stroke-width="3" stroke-linecap="round" stroke-linejoin="round"/>
</g>
<defs>
<filter id="filter0_d_3_77859" x="-4" y="0" width="549" height="549" filterUnits="userSpaceOnUse" color-interpolation-filters="sRGB">
<feFlood flood-opacity="0" result="BackgroundImageFix"/>
<feColorMatrix in="SourceAlpha" type="matrix" values="0 0 0 0 0 0 0 0 0 0 0 0 0 0 0 0 0 0 127 0" result="hardAlpha"/>
<feOffset dy="4"/>
<feGaussianBlur stdDeviation="2"/>
<feComposite in2="hardAlpha" operator="out"/>
<feColorMatrix type="matrix" values="0 0 0 0 0 0 0 0 0 0 0 0 0 0 0 0 0 0 0.25 0"/>
<feBlend mode="normal" in2="BackgroundImageFix" result="effect1_dropShadow_3_77859"/>
<feBlend mode="normal" in="SourceGraphic" in2="effect1_dropShadow_3_77859" result="shape"/>
</filter>
</defs>
</svg>
